<svg xmlns="http://www.w3.org/2000/svg" viewBox="726 -765 468 209.915"><defs><style>.a{fill:#58595b;}.b{fill:#f94615;}</style></defs><g transform="translate(726 -765)"><path class="a" d="M11.948,0H0V161.618H106.907V150.55H11.948Z"/><rect class="a" width="11.948" height="161.618" transform="translate(140.111)"/><rect class="b" width="114.956" height="11.068" transform="translate(185.389 150.55)"/><rect class="b" width="114.956" height="11.068" transform="translate(185.389)"/><rect class="b" width="114.956" height="11.068" transform="translate(185.389 74.583)"/><path class="a" d="M388.08,0V143.255L276.52,0H265.2V161.618h11.571V17.985L388.08,161.618h11.571V0Z" transform="translate(68.349)"/><g transform="translate(184.383 194.822)"><path class="a" d="M146.6,162.446h0a7.279,7.279,0,0,1,7.295-7.546,8.059,8.059,0,0,1,5.66,2.264l-.755.755a6.41,6.41,0,0,0-4.905-2.138,6.23,6.23,0,0,0-6.163,6.414h0a6.263,6.263,0,0,0,6.163,6.54,6.513,6.513,0,0,0,5.031-2.264l.755.629a7.554,7.554,0,0,1-5.786,2.515C149.619,169.867,146.6,166.6,146.6,162.446Z" transform="translate(-146.6 -154.9)"/><path class="a" d="M158.6,162.446h0a7.3,7.3,0,1,1,14.59-.126h0a7.351,7.351,0,0,1-7.295,7.546A7.245,7.245,0,0,1,158.6,162.446Zm13.458,0h0a6.263,6.263,0,0,0-6.163-6.54,6.153,6.153,0,0,0-6.163,6.414h0a6.263,6.263,0,0,0,6.163,6.54A6.081,6.081,0,0,0,172.058,162.446Z" transform="translate(-143.507 -154.9)"/><path class="a" d="M173.452,155.1h6.037a5.56,5.56,0,0,1,4.025,1.383,3.922,3.922,0,0,1,1.132,2.641h0c0,2.39-1.761,3.773-4.276,4.15l4.779,6.163h-1.384l-4.654-6.037h-4.779v6.037H173.2V155.1Zm5.911,7.546c2.39,0,4.276-1.258,4.276-3.27h0c0-1.887-1.509-3.144-4.15-3.144h-4.905v6.54h4.779Z" transform="translate(-139.744 -154.848)"/><path class="a" d="M185.552,155.1h6.037a5.56,5.56,0,0,1,4.025,1.383,3.425,3.425,0,0,1,1.132,2.641h0c0,2.39-1.761,3.773-4.276,4.15l4.779,6.163h-1.383l-4.654-6.037h-4.779v6.037H185.3V155.1Zm5.911,7.546c2.39,0,4.276-1.258,4.276-3.27h0c0-1.887-1.509-3.144-4.15-3.144h-4.905v6.54h4.779Z" transform="translate(-136.626 -154.848)"/><path class="a" d="M197.5,155.1h10.313v1.006h-9.181v5.66h8.3v1.006h-8.3v5.786h9.307v1.006H197.5V155.1Z" transform="translate(-133.482 -154.848)"/><path class="a" d="M213.131,156.106H208.1V155.1h11.194v1.006h-5.031v13.458h-1.006V156.106Z" transform="translate(-130.75 -154.848)"/><path class="a" d="M218.3,162.446h0a7.3,7.3,0,1,1,14.59-.126h0a7.351,7.351,0,0,1-7.295,7.546A7.168,7.168,0,0,1,218.3,162.446Zm13.458,0h0a6.263,6.263,0,0,0-6.163-6.54,6.153,6.153,0,0,0-6.163,6.414h0a6.263,6.263,0,0,0,6.163,6.54A6.155,6.155,0,0,0,231.758,162.446Z" transform="translate(-128.121 -154.9)"/><path class="a" d="M233,155.1h6.037a5.358,5.358,0,0,1,4.025,1.383,3.922,3.922,0,0,1,1.132,2.641h0c0,2.39-1.761,3.773-4.276,4.15l4.779,6.163h-1.384L238.66,163.4H233.88v6.037H233Zm5.911,7.546c2.39,0,4.276-1.258,4.276-3.27h0c0-1.887-1.509-3.144-4.15-3.144h-4.905v6.54h4.779Z" transform="translate(-124.332 -154.848)"/><path class="a" d="M251.217,155h1.006l6.666,14.59h-1.132l-1.887-4.025h-8.553l-1.887,4.025H244.3Zm4.276,9.559-3.773-8.427-3.773,8.427Z" transform="translate(-121.42 -154.874)"/><path class="a" d="M264.7,155.1h4.779c4.528,0,7.672,3.144,7.672,7.169h0c0,4.15-3.144,7.295-7.672,7.295H264.7Zm4.779,13.458c4.025,0,6.54-2.767,6.54-6.163h0a6.214,6.214,0,0,0-6.54-6.289h-3.773v12.451Z" transform="translate(-116.162 -154.848)"/><path class="a" d="M276.4,155.1h10.313v1.006h-9.181v5.66h8.3v1.006h-8.3v5.786h9.307v1.006H276.4V155.1Z" transform="translate(-113.147 -154.848)"/><path class="a" d="M291.9,167.426l.755-.755a6.842,6.842,0,0,0,5.157,2.138c2.138,0,3.647-1.258,3.647-2.893h0c0-1.509-.755-2.39-4.15-3.019-3.522-.755-4.905-1.887-4.905-4.025h0c0-2.138,2.012-3.773,4.654-3.773a7.09,7.09,0,0,1,4.905,1.761l-.629.88a6.532,6.532,0,0,0-4.276-1.635c-2.138,0-3.522,1.258-3.522,2.767h0c0,1.509.755,2.515,4.151,3.144s4.779,1.887,4.779,4.025h0c0,2.39-2.012,3.9-4.779,3.9A8.667,8.667,0,0,1,291.9,167.426Z" transform="translate(-109.152 -154.848)"/><path class="a" d="M303.126,155.1h10.313v1.006h-9.307v5.66h8.3v1.006h-8.3v5.786h9.307v1.006H303V155.1Z" transform="translate(-106.292 -154.848)"/><path class="a" d="M313.4,162.446h0a7.326,7.326,0,0,1,7.169-7.546,7.929,7.929,0,0,1,5.282,1.887l-.755.755a6.559,6.559,0,0,0-4.654-1.761,6.2,6.2,0,0,0-6.037,6.414h0c0,3.773,2.39,6.54,6.163,6.54a7.677,7.677,0,0,0,4.654-1.635v-4.151h-4.779v-1.006h5.911v5.534a8.585,8.585,0,0,1-5.66,2.138C316.041,169.867,313.4,166.471,313.4,162.446Z" transform="translate(-103.611 -154.9)"/><path class="a" d="M326.8,163.527V155.1h1.132v8.427c0,3.4,1.887,5.408,4.905,5.408,2.893,0,4.779-1.761,4.779-5.282v-8.427h1.132v8.3c0,4.15-2.39,6.414-5.911,6.414C329.315,169.815,326.8,167.677,326.8,163.527Z" transform="translate(-100.158 -154.848)"/><path class="a" d="M339.826,155.1h6.037a5.56,5.56,0,0,1,4.025,1.383,3.922,3.922,0,0,1,1.132,2.641h0c0,2.39-1.761,3.773-4.276,4.15l4.779,6.163h-1.383l-4.654-6.037h-4.779v6.037H339.7V155.1Zm6.037,7.546c2.39,0,4.276-1.258,4.276-3.27h0c0-1.887-1.509-3.144-4.15-3.144h-4.905v6.54h4.779Z" transform="translate(-96.833 -154.848)"/><path class="a" d="M350.8,162.446h0a7.3,7.3,0,1,1,14.59-.126h0a7.35,7.35,0,0,1-7.295,7.546A7.245,7.245,0,0,1,350.8,162.446Zm13.458,0h0a6.171,6.171,0,1,0-12.326-.126h0a6.263,6.263,0,0,0,6.163,6.54A6.081,6.081,0,0,0,364.258,162.446Z" transform="translate(-93.972 -154.9)"/><path class="a" d="M363.6,167.426l.755-.755a6.842,6.842,0,0,0,5.157,2.138c2.138,0,3.647-1.258,3.647-2.893h0c0-1.509-.755-2.39-4.151-3.019-3.522-.755-4.905-1.887-4.905-4.025h0c0-2.138,2.012-3.773,4.654-3.773a7.09,7.09,0,0,1,4.905,1.761l-.629.88a6.532,6.532,0,0,0-4.276-1.635c-2.138,0-3.522,1.258-3.522,2.767h0c0,1.509.755,2.515,4.15,3.144s4.779,1.887,4.779,4.025h0c0,2.39-2.012,3.9-4.779,3.9A8.667,8.667,0,0,1,363.6,167.426Z" transform="translate(-90.673 -154.848)"/></g></g></svg>