<svg xmlns="http://www.w3.org/2000/svg" viewBox="399 9470 67.6 81.091"><defs><style>.cls-1,.cls-2{fill:#fff}.cls-2{fill-rule:evenodd}</style></defs><g id="Group_71" data-name="Group 71" transform="translate(399.1 9469.991)"><g id="Group_69" data-name="Group 69"><path id="Path_102" data-name="Path 102" class="cls-1" d="M6.9 80.5a11.136 11.136 0 0 1-1.7.2 7.569 7.569 0 0 1-1.5.1 10.9 10.9 0 0 1-1.7-.1q-.9-.15-2.1-.3l9-28.6c.7-.1 1.3-.1 1.9-.2a10.869 10.869 0 0 1 1.8-.1 10.284 10.284 0 0 1 1.7.1c.6.1 1.3.1 2.1.2l8.9 28.7a33.66 33.66 0 0 1-4 .4 8.6 8.6 0 0 1-1.6-.1c-.5-.1-1.1-.1-1.7-.2L16.5 75a20.935 20.935 0 0 1-2.1.5 15.03 15.03 0 0 1-2 .2 12.751 12.751 0 0 1-1.9-.1 17.657 17.657 0 0 1-2-.4zm5.7-21.2L9.9 69.6c.5.1.9.2 1.3.3a4.869 4.869 0 0 0 1.2.1 5.283 5.283 0 0 0 1.3-.1c.4-.1.9-.2 1.4-.3z"/><path id="Path_103" data-name="Path 103" class="cls-1" d="M47.5 72.2a8.433 8.433 0 0 1-1 4.4 6.176 6.176 0 0 1-2.6 2.7 11.82 11.82 0 0 1-4 1.4 27.062 27.062 0 0 1-5.1.4c-1.4 0-2.7-.1-3.9-.2s-2.4-.2-3.7-.4V51.8a29.834 29.834 0 0 1 3.3-.4c1.2-.1 2.6-.2 4.2-.2a20.24 20.24 0 0 1 4.3.4 12.105 12.105 0 0 1 3.5 1.3 5.894 5.894 0 0 1 2.3 2.4 8.051 8.051 0 0 1 .1 7.2 8.255 8.255 0 0 1-2.1 2.4 15.105 15.105 0 0 1 1.8.9 6.73 6.73 0 0 1 1.5 1.4 10.344 10.344 0 0 1 1.1 2.1 23.569 23.569 0 0 1 .3 2.9zm-13.4-9.4h1.1a4.332 4.332 0 0 0 2.7-.7 3 3 0 0 0 1-2.4 2.9 2.9 0 0 0-.3-1.4 1.962 1.962 0 0 0-.9-.9 2.144 2.144 0 0 0-1.2-.4 4.869 4.869 0 0 0-1.2-.1h-1.2zm0 5.7v6.7a1.952 1.952 0 0 1 .7.1h1.1a7.719 7.719 0 0 0 1.5-.2 5.783 5.783 0 0 0 1.4-.5 3.178 3.178 0 0 0 1-1 2.861 2.861 0 0 0 .4-1.7 2.787 2.787 0 0 0-1.3-2.7 6.228 6.228 0 0 0-3.3-.7h-1.5z"/><path id="Path_104" data-name="Path 104" class="cls-1" d="M50.3 51.7h16.9a9.971 9.971 0 0 1 .2 1.6 7.084 7.084 0 0 1 .1 1.4 21.112 21.112 0 0 1-.3 3.2h-9.8v4.9h7.7a20.267 20.267 0 0 1 .4 3.1 13.278 13.278 0 0 1-.4 3.2h-7.7v11.3a28.817 28.817 0 0 1-3.5.4 17.13 17.13 0 0 1-3.6-.4V51.7z"/></g><g id="Group_70" data-name="Group 70"><path id="Path_105" data-name="Path 105" class="cls-1" d="M37.9 45.4a22.926 22.926 0 0 0 18-20l-.9.2c-1.6 7.2-7.7 13.4-15.9 15.2-11 2.4-21.6-3.9-23.8-14a18.411 18.411 0 0 1 .7-9.9l-5.3.6a22.375 22.375 0 0 0-.1 10.3 22.988 22.988 0 0 0 27.3 17.6z"/><path id="Path_106" data-name="Path 106" class="cls-1" d="M24.1 1.8a22.754 22.754 0 0 0-14 22.9l.8-.4A20.566 20.566 0 0 1 23.8 6.5c10.4-4.3 22-.1 26 9.5a17.767 17.767 0 0 1 1.1 9.9l5.1-1.6a24.36 24.36 0 0 0-1.7-10.2A23.157 23.157 0 0 0 24.1 1.8z"/><path id="Path_107" data-name="Path 107" class="cls-2" d="M11.1 27.5s-7.6-5.2 1.3-8.7c9.1-3.6 24.6 3.8 24.6 3.8S12.7 8.2 4.8 18c-5 6.3 6.3 9.5 6.3 9.5z"/><path id="Path_108" data-name="Path 108" class="cls-2" d="M53.2 14s8.8 2.6 1.4 8.7c-7.6 6.2-24.6 4-24.6 4s27.5 6.2 32-5.6c3-7.5-8.8-7.1-8.8-7.1z"/></g></g></svg>