<svg xmlns="http://www.w3.org/2000/svg" viewBox="0 0 262 160"><path d="M52.6 82.3h-6.3l3.4-11.1 2.9 11.1zM43 94.8l2.2-7.4h8.5l2 7.4h7.9l-7.9-28.1c-.4-1.6-1.4-2.4-3.2-2.4H41.4v2.6h.9c1.2 0 1.8.5 1.8 1.4 0 .6-.1 1.1-.6 2.5l-7.9 24.1H43zm30.4 0V66.6c0-1.5-.8-2.3-2.2-2.3h-6.8v2.6h.5c1.2 0 1.7.5 1.7 1.7v26.2h6.8zm12.2 0V66.6c0-1.5-.8-2.3-2.2-2.3h-6.8v2.6h.4c1.2 0 1.7.5 1.7 1.7v26.2h6.9zM97.9 67c0-2-1.4-3.2-3.9-3.2S90 65 90 67s1.5 3.2 3.9 3.2c2.5.1 4-1.1 4-3.2zm0 27.8V74c0-1.5-.8-2.4-2.2-2.4h-6.8v2.8h.4c1.2 0 1.7.5 1.7 1.7v18.6h6.9zm15.6-11v4.4c-1.2 1.2-2.6 2-3.9 2-1.3 0-1.7-.6-1.7-2.3 0-1.7.4-2.5 1.6-3 1-.4 2.2-.7 4-1.1zm-9.4-5.3c2.3-1.1 4.9-1.8 6.9-1.8 1.9 0 2.6.7 2.6 2.7v.5c-2.8.5-3.7.6-5.3 1-.9.2-1.8.5-2.6.9-2.8 1.1-4.1 3.4-4.1 6.8 0 4.3 1.8 6.4 5.6 6.4 1.4 0 2.6-.3 3.7-.7 1-.5 1.6-.8 3-2v.3c0 1.4.7 2.2 2.1 2.2h6.5v-2.6h-.5c-1.2 0-1.7-.5-1.7-1.9V79.5c0-5.8-2-7.8-7.7-7.8-1.8 0-3.6.2-5.4.6-1.7.4-2.7.8-4.8 1.8l1.7 4.4zM133 94.8V79.2c1.2-1.3 2.5-1.9 4-1.9 1.6 0 2 .6 2 2.9v14.6h6.9V79c0-3.6-.3-4.8-1.4-6.1-1-1.1-2.4-1.6-4.3-1.6-2.8 0-4.8.9-7.5 3.5v-.9c0-1.5-.7-2.3-2.1-2.3H124v2.8h.4c1.2 0 1.7.5 1.7 1.7v18.6h6.9zm34.3-4.7h-9.8l9.4-13.3v-4.7h-14.8c-1.7 0-2.4.8-2.4 2.5v4.1h2.8v-.4c0-1 .5-1.6 1.7-1.6h5l-9.5 13.4v4.6h17.7v-4.6zm37.6 3.2V67.9c0-2-.7-2.7-2.6-2.7h-5.7V68h.9c.2 0 .4.1.6.3.3.3.3.6.3 1.3v23.7h6.5zm3.2 0h6.5V74.1c0-1.9-.7-2.7-2.7-2.7h-3.8v21.9zm-12.4 0v-22h-3.8c-1.9 0-2.6.8-2.6 2.7v19.3h6.4zm25.4-12.9c0 11.5-8.2 19.9-19.4 19.9s-19.4-8.4-19.4-19.9c0-11.5 8.2-19.9 19.4-19.9 11.2.1 19.4 8.4 19.4 19.9zm4.6 0c0-14-10.3-24.5-24-24.5-13.8 0-24.1 10.5-24.1 24.5 0 14.1 10.3 24.5 24.1 24.5 13.7 0 24-10.4 24-24.5z" fill="#465993"/></svg>