<svg xmlns="http://www.w3.org/2000/svg" viewBox="1398.388 747.297 126.483 265.356">
  <defs>
    <style>
      .cls-1, .cls-2 {
        fill: #fff;
      }

      .cls-2 {
        fill-rule: evenodd;
      }

      .cls-3 {
        fill: none;
        stroke: #fff;
        stroke-width: 0.36px;
      }
    </style>
  </defs>
  <g id="Group_68" data-name="Group 68" transform="translate(1383.714 731.668)">
    <g id="Group_66" data-name="Group 66" transform="translate(14.674 15.629)">
      <g id="Group_60" data-name="Group 60" transform="translate(0 94.799)">
        <path id="Path_53" data-name="Path 53" class="cls-1" d="M23.863,116.8a20.62,20.62,0,0,1-3.148.37,14.016,14.016,0,0,1-2.778.185,20.187,20.187,0,0,1-3.148-.185q-1.667-.278-3.889-.556L27.567,63.656c1.3-.185,2.407-.185,3.519-.37a20.127,20.127,0,0,1,3.333-.185,19.044,19.044,0,0,1,3.148.185c1.111.185,2.407.185,3.889.37L57.938,116.8a62.335,62.335,0,0,1-7.407.741,15.932,15.932,0,0,1-2.963-.185c-.926-.185-2.037-.185-3.148-.37l-2.778-10.37c-1.481.37-2.778.741-3.889.926a27.836,27.836,0,0,1-3.7.37,23.611,23.611,0,0,1-3.519-.185,32.7,32.7,0,0,1-3.7-.741Zm10.37-39.26-5,19.074c.926.185,1.667.37,2.407.556a9.016,9.016,0,0,0,2.222.185,9.784,9.784,0,0,0,2.407-.185c.741-.185,1.667-.37,2.593-.556Z" transform="translate(-10.9 -62.544)"/>
        <path id="Path_54" data-name="Path 54" class="cls-1" d="M75.693,101.689a15.618,15.618,0,0,1-1.852,8.148,11.438,11.438,0,0,1-4.815,5,21.889,21.889,0,0,1-7.407,2.593,50.116,50.116,0,0,1-9.445.741c-2.593,0-5-.185-7.222-.37s-4.444-.37-6.852-.741V63.911a55.251,55.251,0,0,1,6.111-.741c2.222-.185,4.815-.37,7.778-.37a37.482,37.482,0,0,1,7.963.741,22.418,22.418,0,0,1,6.482,2.407,10.915,10.915,0,0,1,4.259,4.444,14.909,14.909,0,0,1,.185,13.333,15.287,15.287,0,0,1-3.889,4.444,27.976,27.976,0,0,1,3.333,1.667A12.464,12.464,0,0,1,73.1,92.43a19.156,19.156,0,0,1,2.037,3.889A43.645,43.645,0,0,1,75.693,101.689ZM50.878,84.282h2.037a8.022,8.022,0,0,0,5-1.3,5.549,5.549,0,0,0,1.852-4.444,5.378,5.378,0,0,0-.556-2.593,3.634,3.634,0,0,0-1.667-1.667,3.971,3.971,0,0,0-2.222-.741,9.016,9.016,0,0,0-2.222-.185H50.878Zm0,10.556v12.408a3.615,3.615,0,0,1,1.3.185h2.037a14.3,14.3,0,0,0,2.778-.37,10.71,10.71,0,0,0,2.593-.926,5.886,5.886,0,0,0,1.852-1.852,5.3,5.3,0,0,0,.741-3.148c0-2.407-.741-4.074-2.407-5a11.534,11.534,0,0,0-6.111-1.3H50.878Z" transform="translate(12.271 -62.8)"/>
        <path id="Path_55" data-name="Path 55" class="cls-1" d="M61.2,63.3H92.5a18.467,18.467,0,0,1,.37,2.963,13.118,13.118,0,0,1,.185,2.593,39.1,39.1,0,0,1-.556,5.926H74.348v9.074H88.608a37.531,37.531,0,0,1,.741,5.741,24.588,24.588,0,0,1-.741,5.926H74.348v20.926a53.369,53.369,0,0,1-6.482.741,31.723,31.723,0,0,1-6.667-.741V63.3Z" transform="translate(31.949 -62.374)"/>
      </g>
      <g id="Group_64" data-name="Group 64" transform="translate(1.111 160.355)">
        <g id="Group_61" data-name="Group 61" transform="translate(0.556)">
          <path id="Path_56" data-name="Path 56" class="cls-1" d="M16.615,100.4h1.852l5.185,15.556H22.17l-1.3-3.889h-6.3l-1.3,3.889H11.8Zm3.7,10.185-2.778-8.519-2.778,8.519Z" transform="translate(-11.8 -96.326)"/>
          <path id="Path_57" data-name="Path 57" class="cls-1" d="M19.37,114.274c.185,0,.37.185.556.185s.37.185.741.185a8.02,8.02,0,0,0,.926.185H22.7a5.709,5.709,0,0,0,1.852-.185,2.985,2.985,0,0,0,1.3-.741,3.251,3.251,0,0,0,.741-.926,2.746,2.746,0,0,0,.185-1.3,2.349,2.349,0,0,0-.185-1.111c-.185-.37-.37-.556-.556-.926a2.848,2.848,0,0,0-1.111-.741c-.556-.185-1.111-.556-1.667-.741s-.926-.37-1.481-.556a5.763,5.763,0,0,1-1.111-.741,3.874,3.874,0,0,1-.741-1.111,3.7,3.7,0,0,1-.37-1.667,3.332,3.332,0,0,1,1.3-2.778,5.529,5.529,0,0,1,3.7-1.111h.926a1.67,1.67,0,0,1,.926.185c.37,0,.556.185.741.185s.37.185.556.185a1.4,1.4,0,0,1-.185.741c0,.185-.185.37-.185.556a11.8,11.8,0,0,0-1.3-.37c-.556,0-1.111-.185-1.667-.185a3.62,3.62,0,0,0-2.593.741,2.378,2.378,0,0,0-.741,1.852,1.388,1.388,0,0,0,.185.926,1.446,1.446,0,0,0,.741.741c.37.185.556.37.926.556a9.03,9.03,0,0,0,1.3.556c.556.185,1.111.556,1.667.741a3.322,3.322,0,0,1,1.3.926,3.322,3.322,0,0,1,.926,1.3,4.422,4.422,0,0,1,.37,1.667,6.657,6.657,0,0,1-.37,2.037,2.88,2.88,0,0,1-1.111,1.481,5.792,5.792,0,0,1-1.852.926,9.382,9.382,0,0,1-2.407.37,6.334,6.334,0,0,1-2.037-.185c-.556-.185-1.111-.185-1.667-.37a1.4,1.4,0,0,1,.185-.741A1.113,1.113,0,0,0,19.37,114.274Z" transform="translate(-5.667 -96.496)"/>
          <path id="Path_58" data-name="Path 58" class="cls-1" d="M25.285,114.274c.185,0,.37.185.556.185s.37.185.741.185a8.02,8.02,0,0,0,.926.185h1.111a5.709,5.709,0,0,0,1.852-.185,2.985,2.985,0,0,0,1.3-.741,3.252,3.252,0,0,0,.741-.926,2.746,2.746,0,0,0,.185-1.3,2.349,2.349,0,0,0-.185-1.111c-.185-.37-.37-.556-.556-.926a2.848,2.848,0,0,0-1.111-.741c-.556-.185-1.111-.556-1.667-.741s-.926-.37-1.481-.556a5.763,5.763,0,0,1-1.111-.741,3.874,3.874,0,0,1-.741-1.111,3.7,3.7,0,0,1-.37-1.667,3.332,3.332,0,0,1,1.3-2.778,5.529,5.529,0,0,1,3.7-1.111H31.4a1.67,1.67,0,0,1,.926.185c.37,0,.556.185.741.185s.37.185.556.185a1.4,1.4,0,0,1-.185.741c0,.185-.185.37-.185.556a11.8,11.8,0,0,0-1.3-.37c-.556,0-1.111-.185-1.667-.185a3.62,3.62,0,0,0-2.593.741,2.378,2.378,0,0,0-.741,1.852,1.388,1.388,0,0,0,.185.926,1.446,1.446,0,0,0,.741.741,4.049,4.049,0,0,0,.926.556,9.03,9.03,0,0,0,1.3.556c.556.185,1.111.556,1.667.741a3.322,3.322,0,0,1,1.3.926,3.322,3.322,0,0,1,.926,1.3,4.422,4.422,0,0,1,.37,1.667,6.657,6.657,0,0,1-.37,2.037,2.88,2.88,0,0,1-1.111,1.481,5.792,5.792,0,0,1-1.852.926,9.382,9.382,0,0,1-2.407.37,6.334,6.334,0,0,1-2.037-.185c-.556-.185-1.111-.185-1.481-.37a1.4,1.4,0,0,1,.185-.741A.563.563,0,0,1,25.285,114.274Z" transform="translate(-0.47 -96.496)"/>
          <path id="Path_59" data-name="Path 59" class="cls-1" d="M37.7,116.226a6.184,6.184,0,0,1-2.778-.556A5.789,5.789,0,0,1,32.882,114a5.531,5.531,0,0,1-1.111-2.593,13.565,13.565,0,0,1,0-6.3,10.945,10.945,0,0,1,1.111-2.593,4.527,4.527,0,0,1,2.037-1.667A6.184,6.184,0,0,1,37.7,100.3a6.184,6.184,0,0,1,2.778.556,5.789,5.789,0,0,1,2.037,1.667,5.53,5.53,0,0,1,1.111,2.593,13.565,13.565,0,0,1,0,6.3A10.945,10.945,0,0,1,42.511,114a4.527,4.527,0,0,1-2.037,1.667A6.184,6.184,0,0,1,37.7,116.226Zm0-1.3a4.931,4.931,0,0,0,2.222-.556,4.992,4.992,0,0,0,1.482-1.3,6.846,6.846,0,0,0,.926-2.037,11.209,11.209,0,0,0,.37-2.778,14.3,14.3,0,0,0-.37-2.778,6.846,6.846,0,0,0-.926-2.037,3.294,3.294,0,0,0-1.482-1.3A3.949,3.949,0,0,0,37.7,101.6a4.931,4.931,0,0,0-2.222.556,4.992,4.992,0,0,0-1.481,1.3,6.846,6.846,0,0,0-.926,2.037,11.209,11.209,0,0,0-.37,2.778,14.294,14.294,0,0,0,.37,2.778,6.846,6.846,0,0,0,.926,2.037,3.294,3.294,0,0,0,1.481,1.3A4.931,4.931,0,0,0,37.7,114.93Z" transform="translate(4.897 -96.411)"/>
          <path id="Path_60" data-name="Path 60" class="cls-1" d="M50.256,114.359c.185.185.185.37.37.556,0,.185.185.37.185.556l-1.667.556a8.3,8.3,0,0,1-2.222.185,7.677,7.677,0,0,1-2.963-.556,6.659,6.659,0,0,1-2.222-1.482,10.5,10.5,0,0,1-1.481-2.407,8.971,8.971,0,0,1-.556-3.333,10.782,10.782,0,0,1,.556-3.519,7.266,7.266,0,0,1,1.481-2.593,5.056,5.056,0,0,1,2.222-1.667,7.677,7.677,0,0,1,2.963-.556,7.632,7.632,0,0,1,2.222.185c.556.185,1.111.185,1.3.37,0,.185,0,.556-.185.556,0,.185-.185.37-.185.556-.185,0-.37-.185-.556-.185s-.37-.185-.741-.185a2.014,2.014,0,0,1-.926-.185H46.737a6.907,6.907,0,0,0-2.222.37,4.033,4.033,0,0,0-1.667,1.3,4.224,4.224,0,0,0-1.111,2.222,12.037,12.037,0,0,0,0,5.926,20.2,20.2,0,0,0,1.111,2.037,3.842,3.842,0,0,0,1.852,1.111,9.3,9.3,0,0,0,2.222.37,5.709,5.709,0,0,0,1.852-.185A1.411,1.411,0,0,0,50.256,114.359Z" transform="translate(11.967 -96.581)"/>
          <path id="Path_61" data-name="Path 61" class="cls-1" d="M47.4,100.4h1.482v15.556H47.4Z" transform="translate(18.527 -96.326)"/>
          <path id="Path_62" data-name="Path 62" class="cls-1" d="M54.615,100.4h1.852l5.185,15.556H60.171l-1.3-3.889h-6.3l-1.3,3.889H49.8Zm3.519,10.185-2.778-8.519-2.778,8.519Z" transform="translate(20.571 -96.326)"/>
          <path id="Path_63" data-name="Path 63" class="cls-1" d="M67.171,114.359c.185.185.185.37.37.556,0,.185.185.37.185.556l-1.667.556a9.016,9.016,0,0,1-2.222.185l-.37,1.111h.37a2.264,2.264,0,0,1,1.667.556,1.681,1.681,0,0,1,.556,1.3c0,.741-.185,1.3-.741,1.482a3.949,3.949,0,0,1-2.222.556h-.741c-.37,0-.556-.185-.741-.185v-.556c0-.185.185-.37.185-.556.185,0,.37.185.556.185H63.1c.556,0,.926,0,1.111-.185.37-.185.37-.37.37-.741a.962.962,0,0,0-.37-.741,2.349,2.349,0,0,0-1.111-.185H61.8l.741-2.037a9.169,9.169,0,0,1-2.407-.741,7.251,7.251,0,0,1-1.852-1.482,5.739,5.739,0,0,1-1.111-2.407,14.687,14.687,0,0,1-.37-3.148,10.782,10.782,0,0,1,.556-3.519,7.266,7.266,0,0,1,1.481-2.593,5.056,5.056,0,0,1,2.222-1.667,9.8,9.8,0,0,1,5.185-.37c.556.185,1.111.185,1.3.37,0,.185,0,.556-.185.556,0,.185-.185.37-.185.556-.185,0-.37-.185-.556-.185s-.37-.185-.741-.185a2.014,2.014,0,0,1-.926-.185H63.837a6.907,6.907,0,0,0-2.222.37,4.033,4.033,0,0,0-1.667,1.3,4.224,4.224,0,0,0-1.111,2.222,12.038,12.038,0,0,0,0,5.926,20.2,20.2,0,0,0,1.111,2.037,3.842,3.842,0,0,0,1.852,1.111,9.3,9.3,0,0,0,2.222.37,5.709,5.709,0,0,0,1.852-.185A1.1,1.1,0,0,0,67.171,114.359Z" transform="translate(26.534 -96.581)"/>
          <path id="Path_64" data-name="Path 64" class="cls-1" d="M68.5,102.274h1.852l5.185,15.556H74.056l-1.3-3.889H66.278l-1.3,3.889H63.5ZM67.759,99.5c-.37,0-.556,0-.741.185a2.557,2.557,0,0,1-.741.556c-.185-.37-.37-.556-.556-.926.185-.185.556-.37.926-.741a2.632,2.632,0,0,1,1.111-.37,1.67,1.67,0,0,1,.926.185c.37.185.556.185.926.37s.556.37.926.37a1.67,1.67,0,0,0,.926.185c.37,0,.556,0,.741-.185a2.556,2.556,0,0,1,.741-.556c.185.185.185.37.37.556,0,.185.185.37.185.556a4.05,4.05,0,0,1-.926.556,2.632,2.632,0,0,1-1.111.37,1.669,1.669,0,0,1-.926-.185c-.37-.185-.556-.185-.926-.37s-.556-.185-.926-.37C68.315,99.681,68.13,99.5,67.759,99.5ZM72.2,112.459l-2.778-8.519-2.778,8.519Z" transform="translate(32.242 -98.2)"/>
          <path id="Path_65" data-name="Path 65" class="cls-1" d="M77,116.226a6.184,6.184,0,0,1-2.778-.556A5.789,5.789,0,0,1,72.181,114a5.53,5.53,0,0,1-1.111-2.593,13.565,13.565,0,0,1,0-6.3,10.945,10.945,0,0,1,1.111-2.593,4.527,4.527,0,0,1,2.037-1.667,7.222,7.222,0,0,1,5.556,0,5.789,5.789,0,0,1,2.037,1.667,5.531,5.531,0,0,1,1.111,2.593,13.565,13.565,0,0,1,0,6.3A10.946,10.946,0,0,1,81.811,114a4.527,4.527,0,0,1-2.037,1.667A6.184,6.184,0,0,1,77,116.226Zm0-1.3a4.931,4.931,0,0,0,2.222-.556,4.992,4.992,0,0,0,1.482-1.3,6.846,6.846,0,0,0,.926-2.037,11.208,11.208,0,0,0,.37-2.778,14.294,14.294,0,0,0-.37-2.778,6.846,6.846,0,0,0-.926-2.037,3.294,3.294,0,0,0-1.482-1.3A3.949,3.949,0,0,0,77,101.6a4.931,4.931,0,0,0-2.222.556,4.993,4.993,0,0,0-1.482,1.3,6.846,6.846,0,0,0-.926,2.037,11.209,11.209,0,0,0-.37,2.778,14.3,14.3,0,0,0,.37,2.778,6.846,6.846,0,0,0,.926,2.037,3.294,3.294,0,0,0,1.482,1.3A4.931,4.931,0,0,0,77,114.93Z" transform="translate(38.375 -96.411)"/>
        </g>
        <g id="Group_62" data-name="Group 62" transform="translate(0 28.704)">
          <path id="Path_66" data-name="Path 66" class="cls-1" d="M11.685,113.9h2.778a6.588,6.588,0,0,1,3.519.926,3.108,3.108,0,0,1,1.111,2.593,2.349,2.349,0,0,1-.185,1.111c-.185.37-.37.556-.556.926-.185.185-.37.556-.741.741a1.414,1.414,0,0,1-.926.37,2.632,2.632,0,0,1,1.111.37,1.849,1.849,0,0,1,.926.741,2.361,2.361,0,0,1,.741,1.111,3.61,3.61,0,0,1,.185,1.481,5.479,5.479,0,0,1-.37,1.852c-.185.556-.741.926-1.111,1.3a6.577,6.577,0,0,1-1.667.741,8.3,8.3,0,0,1-2.222.185H11.5V113.9Zm3.148,5.741c1.111,0,1.852-.185,2.222-.741a2.147,2.147,0,0,0,.741-1.852,1.805,1.805,0,0,0-.741-1.667,3.142,3.142,0,0,0-2.407-.741H12.981v4.815h1.852Zm-1.852,6.852h1.667a4.077,4.077,0,0,0,1.481-.185,2.677,2.677,0,0,0,1.3-.37,2.232,2.232,0,0,0,.926-.926,2.454,2.454,0,0,0,0-2.593,1.849,1.849,0,0,0-.741-.926l-1.111-.556a3.61,3.61,0,0,0-1.482-.185H13.167v5.741Z" transform="translate(-11.5 -113.53)"/>
          <path id="Path_67" data-name="Path 67" class="cls-1" d="M17.6,113.8h2.593a6.3,6.3,0,0,1,1.852.185,6.578,6.578,0,0,1,1.667.741,2.49,2.49,0,0,1,1.111,1.3,3.362,3.362,0,0,1,.37,2.037,2.746,2.746,0,0,1-.185,1.3,3.874,3.874,0,0,1-.741,1.111l-.926.926-1.111.556h-.185l4.259,5.926H24.822l-4.815-6.3h0l.37-.185c.37-.185.926-.185,1.3-.37a3.874,3.874,0,0,0,1.111-.741,3.251,3.251,0,0,0,.741-.926,2.676,2.676,0,0,0,.37-1.3,3.067,3.067,0,0,0-.926-2.222,3.415,3.415,0,0,0-2.407-.741H19.081v12.593H17.6V113.8Z" transform="translate(-6.304 -113.615)"/>
          <path id="Path_68" data-name="Path 68" class="cls-1" d="M27.43,113.9h1.482l4.63,13.7H32.059l-1.111-3.519H25.393L24.281,127.6H22.8Zm3.148,8.889L28.17,115.2l-2.407,7.593Z" transform="translate(-1.874 -113.53)"/>
          <path id="Path_69" data-name="Path 69" class="cls-1" d="M29.756,126.108c.185,0,.37.185.556.185s.37.185.556.185.556.185.741.185h.926a3.61,3.61,0,0,0,1.481-.185l1.111-.556a1.018,1.018,0,0,0,.556-.926,2.349,2.349,0,0,0,.185-1.111,1.388,1.388,0,0,0-.185-.926c-.185-.185-.185-.556-.556-.741-.185-.185-.556-.37-.926-.741a10.919,10.919,0,0,1-1.482-.741c-.37-.185-.926-.37-1.3-.556a3.874,3.874,0,0,1-1.111-.741,1.849,1.849,0,0,1-.741-.926,3.61,3.61,0,0,1-.185-1.482,2.751,2.751,0,0,1,1.111-2.407,5.3,5.3,0,0,1,3.148-.926h.926c.37,0,.556,0,.741.185a1.113,1.113,0,0,1,.741.185c.185,0,.37.185.556.185a.68.68,0,0,1-.185.556c0,.185-.185.37-.185.556a2.349,2.349,0,0,0-1.111-.185c-.556,0-.926-.185-1.481-.185a3.217,3.217,0,0,0-2.222.556,2.347,2.347,0,0,0-.741,1.667,1.669,1.669,0,0,0,.185.926c.185.185.37.556.556.741a4.05,4.05,0,0,0,.926.556l1.111.556a3.722,3.722,0,0,1,1.482.741,5.763,5.763,0,0,1,1.111.741,3.875,3.875,0,0,1,.741,1.111,3.489,3.489,0,0,1,.37,1.482,3.7,3.7,0,0,1-.37,1.667,3.322,3.322,0,0,1-.926,1.3,3.723,3.723,0,0,1-1.482.741,6.943,6.943,0,0,1-2.037.185,5.709,5.709,0,0,1-1.852-.185,11.8,11.8,0,0,1-1.3-.37.68.68,0,0,1,.185-.556C29.57,126.478,29.756,126.293,29.756,126.108Z" transform="translate(3.578 -113.7)"/>
          <path id="Path_70" data-name="Path 70" class="cls-1" d="M35.3,113.9h1.482v13.7H35.3Z" transform="translate(8.775 -113.53)"/>
          <path id="Path_71" data-name="Path 71" class="cls-1" d="M38.1,113.9h1.481v12.408h5.741v1.3H38.285V113.9Z" transform="translate(11.16 -113.53)"/>
          <path id="Path_72" data-name="Path 72" class="cls-1" d="M43.2,113.9h7.222v1.3H44.5v4.63h4.815v1.3H44.5v5.37h6.111v1.3H43.2Z" transform="translate(15.504 -113.53)"/>
          <path id="Path_73" data-name="Path 73" class="cls-1" d="M48.7,113.9h1.482v13.7H48.7Z" transform="translate(20.19 -113.53)"/>
          <path id="Path_74" data-name="Path 74" class="cls-1" d="M51.5,113.8h2.593a6.947,6.947,0,0,1,1.852.185,6.578,6.578,0,0,1,1.667.741,2.49,2.49,0,0,1,1.111,1.3,3.362,3.362,0,0,1,.37,2.037,2.746,2.746,0,0,1-.185,1.3,3.874,3.874,0,0,1-.741,1.111l-.926.926-1.111.556h-.185l4.259,5.926H58.722l-4.815-6.3h0l.37-.185c.37-.185.926-.185,1.3-.37a3.874,3.874,0,0,0,1.111-.741,1.849,1.849,0,0,0,.741-.926,2.676,2.676,0,0,0,.37-1.3,3.067,3.067,0,0,0-.926-2.222,3.415,3.415,0,0,0-2.407-.741H52.981v12.593H51.5Z" transform="translate(22.575 -113.615)"/>
          <path id="Path_75" data-name="Path 75" class="cls-1" d="M61.23,113.9h1.482l4.63,13.7H65.859l-1.111-3.519H59.193L58.082,127.6H56.6Zm3.148,8.889L61.97,115.2l-2.407,7.593Z" transform="translate(26.919 -113.53)"/>
          <path id="Path_76" data-name="Path 76" class="cls-1" d="M66.4,113.9h3.148a8.65,8.65,0,0,1,3.148.556,5.054,5.054,0,0,1,3.519,3.519,7.676,7.676,0,0,1,.37,2.963c0,4.63-2.407,7.037-7.037,7.037H66.4V113.9Zm1.3,12.408h1.667a9.384,9.384,0,0,0,2.407-.37,5.793,5.793,0,0,0,1.852-.926,3.149,3.149,0,0,0,1.111-1.852,11.209,11.209,0,0,0,.37-2.778,5.624,5.624,0,0,0-1.482-4.259,5.878,5.878,0,0,0-4.259-1.3H67.7v11.482Z" transform="translate(35.268 -113.53)"/>
          <path id="Path_77" data-name="Path 77" class="cls-1" d="M73.5,113.9h7.222v1.3H74.8v4.63h4.815v1.3H74.8v5.37h6.111v1.3H73.5V113.9Z" transform="translate(41.316 -113.53)"/>
        </g>
        <g id="Group_63" data-name="Group 63" transform="translate(0.185 50.556)">
          <path id="Path_78" data-name="Path 78" class="cls-1" d="M11.6,125.8h7.222v1.481H13.081v5h5v1.481h-5V140.8H11.6Z" transform="translate(-11.6 -125.244)"/>
          <path id="Path_79" data-name="Path 79" class="cls-1" d="M17.37,125.8h2.963a5.71,5.71,0,0,1,1.852.185,6.578,6.578,0,0,1,1.667.741,4.327,4.327,0,0,1,1.3,1.3,3.663,3.663,0,0,1,.37,2.037,4.358,4.358,0,0,1-.37,1.481,3.875,3.875,0,0,1-.741,1.111c-.37.37-.741.556-1.111.926a9.029,9.029,0,0,1-1.3.556h-.185l4.63,6.3H24.963l-5.185-6.852h0l.37-.185a9.03,9.03,0,0,0,1.3-.556,3.873,3.873,0,0,0,1.111-.741,1.849,1.849,0,0,0,.741-.926,2.677,2.677,0,0,0,.37-1.3,3.2,3.2,0,0,0-.926-2.407,3.919,3.919,0,0,0-2.593-.741H18.481v13.519H17V125.8Z" transform="translate(-7 -125.244)"/>
          <path id="Path_80" data-name="Path 80" class="cls-1" d="M27.7,125.8h1.482L34,140.43H32.515l-1.3-3.7H25.293l-1.111,3.7H22.7Zm3.519,9.63-2.593-8.148-2.593,8.148Z" transform="translate(-2.144 -125.244)"/>
          <path id="Path_81" data-name="Path 81" class="cls-1" d="M30.3,125.8h1.482l7.037,12.222V125.8H40.3v14.63H38.819l-7.037-12.222V140.43H30.3Z" transform="translate(4.33 -125.244)"/>
          <path id="Path_82" data-name="Path 82" class="cls-1" d="M47.415,139.019c.185.185.185.37.37.556,0,.185.185.37.185.556a8.607,8.607,0,0,1-1.667.556,6.943,6.943,0,0,1-2.037.185,7.431,7.431,0,0,1-2.778-.556,5.252,5.252,0,0,1-2.037-1.482,5.053,5.053,0,0,1-1.3-2.407,8.65,8.65,0,0,1-.556-3.148,9.686,9.686,0,0,1,.556-3.333,7.392,7.392,0,0,1,1.3-2.407,5.252,5.252,0,0,1,2.037-1.481,6.185,6.185,0,0,1,2.778-.556,8.3,8.3,0,0,1,2.222.185,11.8,11.8,0,0,1,1.3.37.68.68,0,0,1-.185.556c0,.185-.185.37-.185.556-.185,0-.37-.185-.556-.185s-.37-.185-.556-.185a1.113,1.113,0,0,1-.741-.185H44.452a9.3,9.3,0,0,0-2.222.37,10.177,10.177,0,0,0-1.667,1.3,20.2,20.2,0,0,0-1.111,2.037,10.6,10.6,0,0,0,0,5.556,3.149,3.149,0,0,0,1.111,1.852,4.373,4.373,0,0,0,1.667,1.111,6.657,6.657,0,0,0,2.037.37,4.6,4.6,0,0,0,1.667-.185A1.411,1.411,0,0,0,47.415,139.019Z" transform="translate(10.549 -125.5)"/>
          <path id="Path_83" data-name="Path 83" class="cls-1" d="M44.8,125.8h1.481v6.3H53.5v-6.3h1.482v14.63H53.5v-7.037H46.282v7.037H44.8Z" transform="translate(16.682 -125.244)"/>
          <path id="Path_84" data-name="Path 84" class="cls-1" d="M52.4,125.8h1.481v14.63H52.4Z" transform="translate(23.156 -125.244)"/>
          <path id="Path_85" data-name="Path 85" class="cls-1" d="M55.456,138.763c.185,0,.37.185.556.185s.37.185.741.185a8.018,8.018,0,0,0,.926.185h1.111a4.11,4.11,0,0,0,1.667-.185,3.015,3.015,0,0,0,1.111-.556,1.849,1.849,0,0,0,.741-.926,3.426,3.426,0,0,0,0-2.222c-.185-.37-.185-.556-.556-.741a2.847,2.847,0,0,0-1.111-.741,7.258,7.258,0,0,0-1.667-.741,9.028,9.028,0,0,1-1.3-.556,3.874,3.874,0,0,1-1.111-.741,2.361,2.361,0,0,1-.741-1.111,3.489,3.489,0,0,1-.37-1.481,3.108,3.108,0,0,1,1.111-2.593c.741-.741,2.037-.926,3.519-.926h.926a1.67,1.67,0,0,1,.926.185,1.113,1.113,0,0,1,.741.185c.185,0,.37.185.556.185a.68.68,0,0,1-.185.556c0,.185-.185.37-.185.556a11.8,11.8,0,0,0-1.3-.37c-.556,0-.926-.185-1.481-.185a3.142,3.142,0,0,0-2.407.741,2.011,2.011,0,0,0-.741,1.667,1.388,1.388,0,0,0,.185.926c.185.185.37.556.556.741a4.047,4.047,0,0,0,.926.556l1.111.556c.556.185,1.111.556,1.667.741a3.322,3.322,0,0,1,1.3.926,3.874,3.874,0,0,1,.741,1.111,3.7,3.7,0,0,1,.37,1.667,5.479,5.479,0,0,1-.37,1.852,2.49,2.49,0,0,1-1.111,1.3,4.856,4.856,0,0,1-1.667.926,9.3,9.3,0,0,1-2.222.37,6.944,6.944,0,0,1-2.037-.185c-.556-.185-1.111-.185-1.481-.37a1.4,1.4,0,0,1,.185-.741C55.27,139.133,55.27,138.948,55.456,138.763Z" transform="translate(25.286 -125.244)"/>
          <path id="Path_86" data-name="Path 86" class="cls-1" d="M61.5,125.8h1.481v14.63H61.5Z" transform="translate(30.908 -125.244)"/>
          <path id="Path_87" data-name="Path 87" class="cls-1" d="M64.5,125.8h1.481l7.037,12.222V125.8H74.5v14.63H73.019l-7.037-12.222V140.43H64.5Z" transform="translate(33.464 -125.244)"/>
          <path id="Path_88" data-name="Path 88" class="cls-1" d="M81.145,133.093h1.481v7.037c-.185.185-.556.185-.741.37a8.02,8.02,0,0,0-.926.185c-.37,0-.741.185-1.111.185H78.737a7.431,7.431,0,0,1-2.778-.556,5.863,5.863,0,0,1-2.222-1.482,7.612,7.612,0,0,1-1.482-2.407,8.65,8.65,0,0,1-.556-3.148,9.685,9.685,0,0,1,.556-3.333,5.318,5.318,0,0,1,1.482-2.407,4.722,4.722,0,0,1,2.222-1.481,5.915,5.915,0,0,1,2.593-.556,8.3,8.3,0,0,1,2.222.185c.556.185,1.111.185,1.3.37a.68.68,0,0,1-.185.556c0,.185-.185.37-.185.556-.37-.185-.741-.185-1.111-.37a5.709,5.709,0,0,0-1.852-.185,9.3,9.3,0,0,0-2.222.37,4.033,4.033,0,0,0-1.667,1.3,7.186,7.186,0,0,0-1.111,2.037,10.6,10.6,0,0,0,0,5.556,8.1,8.1,0,0,0,1.111,1.852,4.373,4.373,0,0,0,1.667,1.111,7.875,7.875,0,0,0,2.037.37h1.481c.37,0,.741-.185,1.111-.185v-5.926Z" transform="translate(39.598 -125.5)"/>
        </g>
      </g>
      <g id="Group_65" data-name="Group 65" transform="translate(6.525)">
        <path id="Path_89" data-name="Path 89" class="cls-1" d="M72.527,81.278A42.455,42.455,0,0,0,105.86,44.241l-1.667.37C101.231,57.945,89.934,69.426,74.749,72.76c-20.371,4.444-40-7.222-44.075-25.926a34.1,34.1,0,0,1,1.3-18.334l-9.815,1.111a41.435,41.435,0,0,0-.185,19.074C26.785,71.649,49.563,86.093,72.527,81.278Z" transform="translate(-8.865 2.78)"/>
        <path id="Path_90" data-name="Path 90" class="cls-1" d="M46.993,14.925A42.137,42.137,0,0,0,21.066,57.333l1.481-.741c.37-13.7,9.445-27.037,23.7-32.963,19.259-7.963,40.741-.185,48.149,17.593a32.9,32.9,0,0,1,2.037,18.334l9.445-2.963A45.112,45.112,0,0,0,102.734,37.7,42.612,42.612,0,0,0,46.993,14.925Z" transform="translate(-8.887 -11.609)"/>
        <path id="Path_91" data-name="Path 91" class="cls-2" d="M28.454,50.032S14.38,40.4,30.862,33.92c16.852-6.667,45.556,7.037,45.556,7.037s-45-26.482-59.63-8.333C7.528,44.106,28.454,50.032,28.454,50.032Z" transform="translate(-14.423 0.878)"/>
        <path id="Path_92" data-name="Path 92" class="cls-2" d="M83.963,25.6s16.3,4.815,2.593,16.111C72.482,53.2,41,49.122,41,49.122S91.927,60.6,100.26,38.751C105.63,24.862,83.963,25.6,83.963,25.6Z" transform="translate(8.217 0.306)"/>
      </g>
    </g>
    <g id="Group_67" data-name="Group 67" transform="translate(16.155 264.133)">
      <path id="Path_93" data-name="Path 93" class="cls-1" d="M16.515,146.1h1.852l5.37,15.926H22.256l-1.3-4.074H14.478l-1.3,4.074H11.7Zm3.7,10.37-2.778-8.889-2.778,8.889Z" transform="translate(-11.7 -145.544)"/>
      <path id="Path_94" data-name="Path 94" class="cls-1" d="M20.426,160.259c.185,0,.37.185.556.185s.556.185.741.185a8.02,8.02,0,0,0,.926.185h1.111a5.708,5.708,0,0,0,1.852-.185,2.985,2.985,0,0,0,1.3-.741,3.251,3.251,0,0,0,.741-.926,2.746,2.746,0,0,0,.185-1.3,2.349,2.349,0,0,0-.185-1.111c-.185-.37-.37-.556-.556-.926a2.848,2.848,0,0,0-1.111-.741,19.209,19.209,0,0,0-1.852-.741c-.556-.185-.926-.37-1.481-.556-.37-.185-.926-.556-1.3-.741-.37-.37-.556-.741-.926-1.111a4,4,0,0,1,.926-4.63,5.53,5.53,0,0,1,3.7-1.111h.926a1.669,1.669,0,0,1,.926.185c.37,0,.556,0,.741.185.185,0,.37.185.556.185a1.4,1.4,0,0,1-.185.741c0,.185-.185.37-.185.741a11.8,11.8,0,0,0-1.3-.37,5.127,5.127,0,0,0-1.667-.185,3.35,3.35,0,0,0-2.593.741,2.377,2.377,0,0,0-.741,1.852,2.349,2.349,0,0,0,.185,1.111,1.446,1.446,0,0,0,.741.741,6.167,6.167,0,0,0,1.111.556,9.029,9.029,0,0,0,1.3.556c.556.185,1.111.556,1.667.741a3.322,3.322,0,0,1,1.3.926,3.322,3.322,0,0,1,.926,1.3,5.407,5.407,0,0,1,.37,1.667,6.657,6.657,0,0,1-.37,2.037,4.457,4.457,0,0,1-1.111,1.482,5.793,5.793,0,0,1-1.852.926,9.382,9.382,0,0,1-2.407.37,7.631,7.631,0,0,1-2.222-.185c-.556-.185-1.111-.185-1.667-.37a1.4,1.4,0,0,1,.185-.741C20.241,160.63,20.426,160.445,20.426,160.259Z" transform="translate(-5.055 -145.63)"/>
      <path id="Path_95" data-name="Path 95" class="cls-1" d="M27.226,160.259c.185,0,.37.185.556.185s.556.185.741.185a8.02,8.02,0,0,0,.926.185h1.111a5.708,5.708,0,0,0,1.852-.185,2.985,2.985,0,0,0,1.3-.741,3.251,3.251,0,0,0,.741-.926,2.746,2.746,0,0,0,.185-1.3,2.349,2.349,0,0,0-.185-1.111c-.185-.37-.37-.556-.556-.926a2.848,2.848,0,0,0-1.111-.741,19.208,19.208,0,0,0-1.852-.741c-.556-.185-.926-.37-1.481-.556-.37-.185-.926-.556-1.3-.741-.37-.37-.556-.741-.926-1.111a4,4,0,0,1,.926-4.63,5.53,5.53,0,0,1,3.7-1.111h.926a1.669,1.669,0,0,1,.926.185c.37,0,.556,0,.741.185.185,0,.37.185.556.185a1.4,1.4,0,0,1-.185.741c0,.185-.185.37-.185.741a11.8,11.8,0,0,0-1.3-.37,5.127,5.127,0,0,0-1.667-.185,3.35,3.35,0,0,0-2.593.741,2.377,2.377,0,0,0-.741,1.852,2.349,2.349,0,0,0,.185,1.111,1.446,1.446,0,0,0,.741.741,6.167,6.167,0,0,0,1.111.556,9.028,9.028,0,0,0,1.3.556c.556.185,1.111.556,1.667.741a3.322,3.322,0,0,1,1.3.926,3.322,3.322,0,0,1,.926,1.3,5.407,5.407,0,0,1,.37,1.667,6.657,6.657,0,0,1-.37,2.037,4.457,4.457,0,0,1-1.111,1.482,5.793,5.793,0,0,1-1.852.926,9.382,9.382,0,0,1-2.407.37,7.631,7.631,0,0,1-2.222-.185c-.556-.185-1.111-.185-1.667-.37a1.4,1.4,0,0,1,.185-.741C27.041,160.63,27.226,160.445,27.226,160.259Z" transform="translate(0.737 -145.63)"/>
      <path id="Path_96" data-name="Path 96" class="cls-1" d="M40.467,162.3a7.677,7.677,0,0,1-2.963-.556,5.789,5.789,0,0,1-2.037-1.667,11.313,11.313,0,0,1-1.3-2.593,16.61,16.61,0,0,1-.37-3.333,18.349,18.349,0,0,1,.37-3.333,6.841,6.841,0,0,1,1.3-2.593,5.789,5.789,0,0,1,2.037-1.667A7.052,7.052,0,0,1,40.467,146a7.677,7.677,0,0,1,2.963.556,5.789,5.789,0,0,1,2.037,1.667,11.313,11.313,0,0,1,1.3,2.593,16.611,16.611,0,0,1,.37,3.333,18.349,18.349,0,0,1-.37,3.333,6.841,6.841,0,0,1-1.3,2.593,5.789,5.789,0,0,1-2.037,1.667A7.677,7.677,0,0,1,40.467,162.3Zm0-1.481a3.949,3.949,0,0,0,2.222-.556,3.79,3.79,0,0,0,1.481-1.482,6.18,6.18,0,0,0,.926-2.222,10.6,10.6,0,0,0,0-5.556,8.015,8.015,0,0,0-.926-2.222,5.636,5.636,0,0,0-1.481-1.482,4.722,4.722,0,0,0-4.444,0,3.79,3.79,0,0,0-1.481,1.482A6.18,6.18,0,0,0,35.837,151a12.6,12.6,0,0,0-.37,2.778,14.294,14.294,0,0,0,.37,2.778,8.015,8.015,0,0,0,.926,2.222,5.636,5.636,0,0,0,1.481,1.482A3.949,3.949,0,0,0,40.467,160.815Z" transform="translate(7.126 -145.63)"/>
      <path id="Path_97" data-name="Path 97" class="cls-1" d="M53.841,160.43c.185.185.185.37.37.556,0,.185.185.37.185.556-.556.185-1.111.37-1.852.556a9.016,9.016,0,0,1-2.222.185,7.677,7.677,0,0,1-2.963-.556,6.659,6.659,0,0,1-2.222-1.482,8.663,8.663,0,0,1-1.482-2.593,11.42,11.42,0,0,1,0-7.037,5.97,5.97,0,0,1,1.482-2.593,5.056,5.056,0,0,1,2.222-1.667,7.677,7.677,0,0,1,2.963-.556,9.782,9.782,0,0,1,2.407.185c.556.185,1.111.185,1.3.37a1.113,1.113,0,0,1-.185.741c0,.185-.185.37-.185.556-.185,0-.37-.185-.556-.185s-.37-.185-.741-.185a2.013,2.013,0,0,1-.926-.185H50.322a5.126,5.126,0,0,0-2.407.556,6.651,6.651,0,0,0-1.852,1.3,4.224,4.224,0,0,0-1.111,2.222,12.037,12.037,0,0,0,0,5.926,5.516,5.516,0,0,0,1.3,2.037,6.652,6.652,0,0,0,1.852,1.3,9.294,9.294,0,0,0,2.222.37,5.709,5.709,0,0,0,1.852-.185A2.158,2.158,0,0,0,53.841,160.43Z" transform="translate(15.049 -145.8)"/>
      <path id="Path_98" data-name="Path 98" class="cls-1" d="M51.7,146.1h1.482v15.926H51.7Z" transform="translate(22.375 -145.544)"/>
      <path id="Path_99" data-name="Path 99" class="cls-1" d="M59.715,146.1h1.852l5.37,15.926H65.456l-1.3-4.074H57.678l-1.3,4.074H54.9Zm3.7,10.37-2.778-8.889-2.778,8.889Z" transform="translate(25.101 -145.544)"/>
      <path id="Path_100" data-name="Path 100" class="cls-1" d="M63.585,146.1H67.1a10.023,10.023,0,0,1,3.519.556,6.278,6.278,0,0,1,2.593,1.667,5.97,5.97,0,0,1,1.482,2.593,9.686,9.686,0,0,1,.556,3.333c0,5.556-2.778,8.148-8.148,8.148H64.141c-.37,0-.556,0-.741-.185V146.1Zm1.482,14.445H67.1a14.3,14.3,0,0,0,2.778-.37,4.415,4.415,0,0,0,2.037-1.111,7.647,7.647,0,0,0,1.3-2.037,9.2,9.2,0,0,0,.37-3.333,6.791,6.791,0,0,0-1.667-5,6.617,6.617,0,0,0-4.815-1.667H65.067v13.519Z" transform="translate(32.342 -145.544)"/>
      <path id="Path_101" data-name="Path 101" class="cls-1" d="M78.667,162.3a7.677,7.677,0,0,1-2.963-.556,5.789,5.789,0,0,1-2.037-1.667,11.313,11.313,0,0,1-1.3-2.593,16.61,16.61,0,0,1-.37-3.333,18.349,18.349,0,0,1,.37-3.333,6.841,6.841,0,0,1,1.3-2.593,5.789,5.789,0,0,1,2.037-1.667A7.052,7.052,0,0,1,78.667,146a7.677,7.677,0,0,1,2.963.556,5.789,5.789,0,0,1,2.037,1.667,11.312,11.312,0,0,1,1.3,2.593,16.611,16.611,0,0,1,.37,3.333,18.349,18.349,0,0,1-.37,3.333,6.841,6.841,0,0,1-1.3,2.593,5.789,5.789,0,0,1-2.037,1.667A7.677,7.677,0,0,1,78.667,162.3Zm0-1.481a3.949,3.949,0,0,0,2.222-.556,3.79,3.79,0,0,0,1.481-1.482,6.18,6.18,0,0,0,.926-2.222,10.6,10.6,0,0,0,0-5.556,8.015,8.015,0,0,0-.926-2.222,5.636,5.636,0,0,0-1.481-1.482,4.722,4.722,0,0,0-4.444,0,3.79,3.79,0,0,0-1.482,1.482A6.18,6.18,0,0,0,74.037,151a12.6,12.6,0,0,0-.37,2.778,14.3,14.3,0,0,0,.37,2.778,8.015,8.015,0,0,0,.926,2.222,5.636,5.636,0,0,0,1.482,1.482A4.931,4.931,0,0,0,78.667,160.815Z" transform="translate(39.668 -145.63)"/>
    </g>
    <line id="Line_12" data-name="Line 12" class="cls-3" x2="123.705" transform="translate(16.155 253.207)"/>
  </g>
</svg>
