<?xml version="1.0" encoding="utf-8"?>
<!-- Generator: Adobe Illustrator 22.0.1, SVG Export Plug-In . SVG Version: 6.00 Build 0)  -->
<svg version="1.1" id="Camada_1" xmlns="http://www.w3.org/2000/svg" xmlns:xlink="http://www.w3.org/1999/xlink" x="0px" y="0px"
	 viewBox="0 0 50 50" style="enable-background:new 0 0 50 50;" xml:space="preserve">
<style type="text/css">
	.st0{fill:#6F6F6F;}
</style>
<path class="st0" d="M15.5,24l21,21c0.6,0.6,0.6,1.5,0,2.1l0,0c-0.6,0.6-1.5,0.6-2.1,0l-21-21c-0.6-0.6-0.6-1.5,0-2.1l0,0
	C14.1,23.4,15,23.4,15.5,24z"/>
<path class="st0" d="M13.5,24l21-21c0.6-0.6,1.5-0.6,2.1,0l0,0c0.6,0.6,0.6,1.5,0,2.1l-21,21c-0.6,0.6-1.5,0.6-2.1,0l0,0
	C12.9,25.5,12.9,24.6,13.5,24z"/>
</svg>
