<?xml version="1.0" encoding="utf-8"?>
<!-- Generator: Adobe Illustrator 22.0.1, SVG Export Plug-In . SVG Version: 6.00 Build 0)  -->
<svg version="1.1" id="Camada_1" xmlns="http://www.w3.org/2000/svg" xmlns:xlink="http://www.w3.org/1999/xlink" x="0px" y="0px"
	 viewBox="0 0 262 160" style="enable-background:new 0 0 262 160;" xml:space="preserve">
<style type="text/css">
	.st0{fill:#465993;}
</style>
<g>
	<path class="st0" d="M52.6,82.3h-6.3l3.4-11.1L52.6,82.3z M43,94.8l2.2-7.4h8.5l2,7.4h7.9l-7.9-28.1c-0.4-1.6-1.4-2.4-3.2-2.4H41.4
		v2.6h0.9c1.2,0,1.8,0.5,1.8,1.4c0,0.6-0.1,1.1-0.6,2.5l-7.9,24.1H43z"/>
	<path class="st0" d="M73.4,94.8V66.6c0-1.5-0.8-2.3-2.2-2.3h-6.8v2.6h0.5c1.2,0,1.7,0.5,1.7,1.7v26.2H73.4z"/>
	<path class="st0" d="M85.6,94.8V66.6c0-1.5-0.8-2.3-2.2-2.3h-6.8v2.6H77c1.2,0,1.7,0.5,1.7,1.7v26.2H85.6z"/>
	<path class="st0" d="M97.9,67c0-2-1.4-3.2-3.9-3.2C91.5,63.8,90,65,90,67c0,2,1.5,3.2,3.9,3.2C96.4,70.3,97.9,69.1,97.9,67z
		 M97.9,94.8V74c0-1.5-0.8-2.4-2.2-2.4h-6.8v2.8h0.4c1.2,0,1.7,0.5,1.7,1.7v18.6H97.9z"/>
	<path class="st0" d="M113.5,83.8v4.4c-1.2,1.2-2.6,2-3.9,2c-1.3,0-1.7-0.6-1.7-2.3c0-1.7,0.4-2.5,1.6-3
		C110.5,84.5,111.7,84.2,113.5,83.8z M104.1,78.5c2.3-1.1,4.9-1.8,6.9-1.8c1.9,0,2.6,0.7,2.6,2.7v0.5c-2.8,0.5-3.7,0.6-5.3,1
		c-0.9,0.2-1.8,0.5-2.6,0.9c-2.8,1.1-4.1,3.4-4.1,6.8c0,4.3,1.8,6.4,5.6,6.4c1.4,0,2.6-0.3,3.7-0.7c1-0.5,1.6-0.8,3-2v0.3
		c0,1.4,0.7,2.2,2.1,2.2h6.5v-2.6H122c-1.2,0-1.7-0.5-1.7-1.9V79.5c0-5.8-2-7.8-7.7-7.8c-1.8,0-3.6,0.2-5.4,0.6
		c-1.7,0.4-2.7,0.8-4.8,1.8L104.1,78.5z"/>
	<path class="st0" d="M133,94.8V79.2c1.2-1.3,2.5-1.9,4-1.9c1.6,0,2,0.6,2,2.9v14.6h6.9V79c0-3.6-0.3-4.8-1.4-6.1
		c-1-1.1-2.4-1.6-4.3-1.6c-2.8,0-4.8,0.9-7.5,3.5v-0.9c0-1.5-0.7-2.3-2.1-2.3H124v2.8h0.4c1.2,0,1.7,0.5,1.7,1.7v18.6H133z"/>
	<path class="st0" d="M167.3,90.1h-9.8l9.4-13.3v-4.7h-14.8c-1.7,0-2.4,0.8-2.4,2.5v4.1h2.8v-0.4c0-1,0.5-1.6,1.7-1.6h5l-9.5,13.4
		v4.6h17.7V90.1z"/>
	<path class="st0" d="M204.9,93.3V67.9c0-2-0.7-2.7-2.6-2.7h-5.7V68h0.3h0.6c0.2,0,0.4,0.1,0.6,0.3c0.3,0.3,0.3,0.6,0.3,1.3v23.7
		H204.9z M208.1,93.3h6.5V74.1c0-1.9-0.7-2.7-2.7-2.7h-3.8V93.3z M195.7,93.3v-22h-3.8c-1.9,0-2.6,0.8-2.6,2.7v19.3H195.7z
		 M221.1,80.4c0,11.5-8.2,19.9-19.4,19.9c-11.2,0-19.4-8.4-19.4-19.9c0-11.5,8.2-19.9,19.4-19.9C212.9,60.6,221.1,68.9,221.1,80.4z
		 M225.7,80.4c0-14-10.3-24.5-24-24.5c-13.8,0-24.1,10.5-24.1,24.5c0,14.1,10.3,24.5,24.1,24.5C215.4,104.9,225.7,94.5,225.7,80.4z"
		/>
</g>
</svg>
