<svg xmlns="http://www.w3.org/2000/svg" viewBox="726 -765 468 209.915"><defs><style>.a{fill:#58595b}.b{fill:#f94615}</style></defs><path class="a" d="M737.948-765H726v161.618h106.907v-11.068h-94.959zM866.111-765h11.948v161.618h-11.948z"/><path class="b" d="M911.389-614.45h114.956v11.068H911.389zM911.389-765h114.956v11.068H911.389zM911.389-690.417h114.956v11.068H911.389z"/><path class="a" d="M1182.429-765v143.255L1070.869-765h-11.32v161.618h11.571v-143.633l111.309 143.633H1194V-765zM910.383-562.632a7.279 7.279 0 0 1 7.295-7.546 8.059 8.059 0 0 1 5.66 2.264l-.755.755a6.41 6.41 0 0 0-4.905-2.138 6.23 6.23 0 0 0-6.163 6.414 6.263 6.263 0 0 0 6.163 6.54 6.513 6.513 0 0 0 5.031-2.264l.755.629a7.554 7.554 0 0 1-5.786 2.515c-4.276.252-7.295-3.015-7.295-7.169zM925.476-562.632a7.3 7.3 0 1 1 14.59-.126 7.351 7.351 0 0 1-7.295 7.546 7.245 7.245 0 0 1-7.295-7.42zm13.458 0a6.263 6.263 0 0 0-6.163-6.54 6.153 6.153 0 0 0-6.163 6.414 6.263 6.263 0 0 0 6.163 6.54 6.081 6.081 0 0 0 6.163-6.414zM944.091-569.926h6.037a5.56 5.56 0 0 1 4.025 1.383 3.922 3.922 0 0 1 1.132 2.641c0 2.39-1.761 3.773-4.276 4.15l4.779 6.163h-1.384l-4.654-6.037h-4.779v6.037h-1.132v-14.337zm5.911 7.546c2.39 0 4.276-1.258 4.276-3.27 0-1.887-1.509-3.144-4.15-3.144h-4.905v6.54h4.779zM959.309-569.926h6.037a5.56 5.56 0 0 1 4.025 1.383 3.425 3.425 0 0 1 1.132 2.641c0 2.39-1.761 3.773-4.276 4.15l4.779 6.163h-1.383l-4.654-6.037h-4.779v6.037h-1.133v-14.337zm5.911 7.546c2.39 0 4.276-1.258 4.276-3.27 0-1.887-1.509-3.144-4.15-3.144h-4.905v6.54h4.779zM974.401-569.926h10.313v1.006h-9.181v5.66h8.3v1.006h-8.3v5.786h9.307v1.006h-10.439v-14.464zM992.764-568.92h-5.031v-1.006h11.194v1.006h-5.031v13.458h-1.006v-13.458zM1000.562-562.632a7.3 7.3 0 1 1 14.59-.126 7.351 7.351 0 0 1-7.295 7.546 7.168 7.168 0 0 1-7.295-7.42zm13.458 0a6.263 6.263 0 0 0-6.163-6.54 6.153 6.153 0 0 0-6.163 6.414 6.263 6.263 0 0 0 6.163 6.54 6.155 6.155 0 0 0 6.163-6.414zM1019.051-569.926h6.037a5.358 5.358 0 0 1 4.025 1.383 3.922 3.922 0 0 1 1.132 2.641c0 2.39-1.761 3.773-4.276 4.15l4.779 6.163h-1.384l-4.653-6.037h-4.78v6.037h-.88zm5.911 7.546c2.39 0 4.276-1.258 4.276-3.27 0-1.887-1.509-3.144-4.15-3.144h-4.905v6.54h4.779zM1040.18-570.052h1.006l6.666 14.59h-1.132l-1.887-4.025h-8.553l-1.887 4.025h-1.13zm4.276 9.559l-3.773-8.427-3.773 8.427zM1058.921-569.926h4.779c4.528 0 7.672 3.144 7.672 7.169 0 4.15-3.144 7.295-7.672 7.295h-4.779zm4.779 13.458c4.025 0 6.54-2.767 6.54-6.163a6.214 6.214 0 0 0-6.54-6.289h-3.773v12.451zM1073.636-569.926h10.313v1.006h-9.181v5.66h8.3v1.006h-8.3v5.786h9.307v1.006h-10.439v-14.464zM1093.131-557.6l.755-.755a6.842 6.842 0 0 0 5.157 2.138c2.138 0 3.647-1.258 3.647-2.893 0-1.509-.755-2.39-4.15-3.019-3.522-.755-4.905-1.887-4.905-4.025 0-2.138 2.012-3.773 4.654-3.773a7.09 7.09 0 0 1 4.905 1.761l-.629.88a6.532 6.532 0 0 0-4.276-1.635c-2.138 0-3.522 1.258-3.522 2.767s.755 2.515 4.151 3.144 4.779 1.887 4.779 4.025c0 2.39-2.012 3.9-4.779 3.9a8.667 8.667 0 0 1-5.787-2.515zM1107.217-569.926h10.313v1.006h-9.307v5.66h8.3v1.006h-8.3v5.786h9.307v1.006h-10.439v-14.464zM1120.172-562.632a7.326 7.326 0 0 1 7.169-7.546 7.929 7.929 0 0 1 5.282 1.887l-.755.755a6.559 6.559 0 0 0-4.654-1.761 6.2 6.2 0 0 0-6.037 6.414c0 3.773 2.39 6.54 6.163 6.54a7.677 7.677 0 0 0 4.654-1.635v-4.151h-4.779v-1.006h5.911v5.534a8.585 8.585 0 0 1-5.66 2.138c-4.653.252-7.294-3.144-7.294-7.169zM1137.025-561.499v-8.427h1.132v8.427c0 3.4 1.887 5.408 4.905 5.408 2.893 0 4.779-1.761 4.779-5.282v-8.427h1.132v8.3c0 4.15-2.39 6.414-5.911 6.414-3.522-.125-6.037-2.263-6.037-6.413zM1153.376-569.926h6.037a5.56 5.56 0 0 1 4.025 1.383 3.922 3.922 0 0 1 1.132 2.641c0 2.39-1.761 3.773-4.276 4.15l4.779 6.163h-1.383l-4.654-6.037h-4.779v6.037h-1.007v-14.337zm6.037 7.546c2.39 0 4.276-1.258 4.276-3.27 0-1.887-1.509-3.144-4.15-3.144h-4.905v6.54h4.779zM1167.211-562.632a7.3 7.3 0 1 1 14.59-.126 7.35 7.35 0 0 1-7.295 7.546 7.245 7.245 0 0 1-7.295-7.42zm13.458 0a6.171 6.171 0 1 0-12.326-.126 6.263 6.263 0 0 0 6.163 6.54 6.081 6.081 0 0 0 6.163-6.414zM1183.31-557.6l.755-.755a6.842 6.842 0 0 0 5.157 2.138c2.138 0 3.647-1.258 3.647-2.893 0-1.509-.755-2.39-4.151-3.019-3.522-.755-4.905-1.887-4.905-4.025 0-2.138 2.012-3.773 4.654-3.773a7.09 7.09 0 0 1 4.905 1.761l-.629.88a6.532 6.532 0 0 0-4.276-1.635c-2.138 0-3.522 1.258-3.522 2.767s.755 2.515 4.15 3.144 4.779 1.887 4.779 4.025c0 2.39-2.012 3.9-4.779 3.9a8.667 8.667 0 0 1-5.785-2.515z"/></svg>